<?xml version="1.0" encoding="utf-8"?>
<!-- Generator: Adobe Illustrator 22.0.1, SVG Export Plug-In . SVG Version: 6.00 Build 0)  -->
<svg version="1.0" id="Layer_1" xmlns="http://www.w3.org/2000/svg" xmlns:xlink="http://www.w3.org/1999/xlink" x="0px" y="0px"
	 viewBox="0 0 792 612" style="enable-background:new 0 0 792 612;" xml:space="preserve">
<style type="text/css">
	.st0{fill:#FFFFFF;stroke:#000000;stroke-miterlimit:10;}
	.st1{fill:none;stroke:#000000;stroke-miterlimit:10;}
	.st2{fill:#FFFFFF;}
</style>
<g>
	<rect x="462.7" y="95.5" transform="matrix(0.6558 -0.7549 0.7549 0.6558 131.7185 480.8504)" width="261" height="1"/>
</g>
<g>
	<rect x="534.3" y="159.7" transform="matrix(0.8447 -0.5352 0.5352 0.8447 19.0067 385.9886)" width="280.8" height="1"/>
</g>
<g>
	<rect x="680.3" y="193.5" transform="matrix(0.2924 -0.9563 0.9563 0.2924 185.2122 870.4706)" width="1" height="233.2"/>
</g>
<g>
	<rect x="671.7" y="289.7" transform="matrix(0.5353 -0.8446 0.8446 0.5353 -56.0682 770.4823)" width="1" height="293"/>
</g>
<g>
	<rect x="535.5" y="371.3" transform="matrix(0.8189 -0.5739 0.5739 0.8189 -192.4634 398.9797)" width="1" height="266.4"/>
</g>
<g>
	<rect x="384.4" y="90" transform="matrix(0.1993 -0.9799 0.9799 0.1993 294.3091 541.2062)" width="187.9" height="1"/>
</g>
<g>
	<rect x="324.4" y="-3.7" transform="matrix(0.962 -0.273 0.273 0.962 -12.9792 92.2077)" width="1" height="192.8"/>
</g>
<g>
	<rect x="212.2" y="-46.2" transform="matrix(0.7435 -0.6687 0.6687 0.7435 -33.3027 175.9072)" width="1" height="355.1"/>
</g>
<g>
	<rect x="156.8" y="106.2" transform="matrix(0.208 -0.9781 0.9781 0.208 -136.969 365.6756)" width="1" height="322.4"/>
</g>
<g>
	<rect x="-1.7" y="343.7" transform="matrix(0.9917 -0.1288 0.1288 0.9917 -42.9638 24.1937)" width="334.5" height="1"/>
</g>
<g>
	<rect x="-1.9" y="395.3" transform="matrix(0.9914 -0.1308 0.1308 0.9914 -50.1915 27.2515)" width="368.7" height="1"/>
</g>
<g>
	<path d="M117.3,399.7c-1.2,0.2-2.3-0.6-2.5-1.8c0-0.1,0-0.2,0.1-0.2l0.6-0.1c0.1,0,0.2,0,0.2,0.1c0.2,0.6,0.7,1.1,1.4,1
		c0.6-0.1,1-0.6,1-1.3c-0.2-1.8-3.6-2.4-3.9-4.6c-0.1-1.1,0.6-2.1,1.7-2.2c1.2-0.2,2,0.6,2.2,1.6c0,0.1,0,0.2-0.1,0.2l-0.6,0.1
		c-0.1,0-0.2,0-0.2-0.1c-0.2-0.5-0.6-0.9-1.1-0.9c-0.5,0.1-0.9,0.6-0.8,1.1c0.3,1.4,3.5,2.3,3.9,4.6
		C119.4,398.6,118.4,399.6,117.3,399.7z"/>
	<path d="M120.7,397.5l-0.5-3.5c0-0.1-0.1-0.2-0.2-0.1l-0.2,0c-0.2,0-0.3,0-0.3-0.2l0-0.3c0-0.2,0-0.3,0.2-0.3l0.3,0
		c0.1,0,0.1-0.1,0.1-0.2L120,392c0-0.2,0-0.3,0.2-0.3l0.5-0.1c0.2,0,0.3,0.1,0.3,0.2l0.1,0.9c0,0.1,0.1,0.1,0.2,0.1l0.6-0.1
		c0.2,0,0.3,0,0.3,0.2l0,0.3c0,0.2,0,0.3-0.2,0.3l-0.6,0.1c-0.1,0-0.1,0.1-0.1,0.2l0.5,3.5c0.1,0.5,0.4,0.8,0.9,0.7
		c0.2,0,0.3,0,0.3,0.2l0.1,0.4c0,0.2,0,0.3-0.2,0.3C121.5,399.1,120.9,398.6,120.7,397.5z"/>
	<path d="M122.6,390.5c0-0.4,0.2-0.7,0.6-0.8c0.4,0,0.7,0.2,0.8,0.6c0.1,0.4-0.2,0.7-0.6,0.8C123,391.1,122.6,390.9,122.6,390.5z
		 M124.1,392.7l0.7,5.7c0,0.2,0,0.3-0.2,0.3l-0.5,0.1c-0.2,0-0.3,0-0.3-0.2l-0.7-5.7c0-0.2,0-0.3,0.2-0.3l0.5-0.1
		C124,392.5,124,392.5,124.1,392.7z"/>
	<path d="M128,397.5l0.1,0.4c0,0.2,0,0.3-0.2,0.3c-1.2,0.2-1.8-0.3-1.9-1.5l-0.9-6.9c0-0.2,0-0.3,0.2-0.3l0.5-0.1
		c0.2,0,0.3,0,0.3,0.2l0.9,7c0.1,0.5,0.4,0.7,0.8,0.7C127.9,397.3,128,397.4,128,397.5z"/>
	<path d="M130.9,397.2l0.1,0.4c0,0.2,0,0.3-0.2,0.3c-1.2,0.2-1.8-0.3-1.9-1.5l-0.9-6.9c0-0.2,0-0.3,0.2-0.3l0.5-0.1
		c0.2,0,0.3,0,0.3,0.2l0.9,7c0.1,0.5,0.4,0.7,0.8,0.7C130.8,396.9,130.8,397,130.9,397.2z"/>
	<path d="M135.1,392.8l0.5,4.1c0,0.2,0,0.3-0.2,0.3l-0.5,0.1c-0.2,0-0.3,0-0.3-0.2l-0.5-4c-0.1-0.8-0.6-1-1-0.9
		c-0.4,0.1-0.8,0.5-0.7,1.2l0.5,4c0,0.2,0,0.3-0.2,0.3l-0.5,0.1c-0.2,0-0.3,0-0.3-0.2l-0.7-5.7c0-0.2,0-0.3,0.2-0.3l0.4,0
		c0.2,0,0.2,0,0.3,0.2l0.1,0.3c0.2-0.3,0.5-0.7,1-0.8C133.9,391,134.9,391.5,135.1,392.8z"/>
	<path d="M140,392.4l0,0.2c0,0.2,0,0.4,0.1,0.6c0,0.2,0,0.3-0.2,0.3l-2.3,0.3c-0.1,0-0.1,0-0.1,0.1l0.1,1c0.1,0.8,0.6,1,1,0.9
		c0.4-0.1,0.6-0.4,0.7-0.7c0-0.1,0.1-0.2,0.2-0.2l0.6-0.1c0.1,0,0.2,0.1,0.2,0.2c0,1-0.7,1.5-1.5,1.7c-0.9,0.1-2-0.3-2.2-2l-0.2-1.9
		c-0.2-1.7,0.7-2.4,1.6-2.5C138.8,390.4,139.8,390.8,140,392.4z M138.1,391.4c-0.4,0.1-0.9,0.4-0.8,1.2l0.1,0.4c0,0.1,0,0.1,0.1,0.1
		l1.6-0.2c0.1,0,0.1,0,0.1-0.1l-0.1-0.4C139,391.5,138.5,391.4,138.1,391.4z"/>
	<path d="M141.4,395.1c0-0.1,0-0.2,0.1-0.2l0.6-0.1c0.1,0,0.2,0,0.2,0.1c0.2,0.3,0.4,0.6,0.9,0.5c0.4-0.1,0.8-0.4,0.7-0.8
		c-0.1-1.2-2.6-1.2-2.9-2.8c-0.1-0.9,0.5-1.7,1.4-1.8c0.8-0.1,1.6,0.3,1.8,1.2c0,0.1,0,0.2-0.1,0.2l-0.5,0.1c-0.1,0-0.2,0-0.2-0.1
		c-0.1-0.3-0.4-0.6-0.8-0.5c-0.4,0-0.6,0.4-0.6,0.7c0.1,1,2.7,1.1,2.9,2.9c0.1,1-0.7,1.7-1.6,1.9
		C142.4,396.4,141.7,395.9,141.4,395.1z"/>
	<path d="M145.8,394.5c0-0.1,0-0.2,0.1-0.2l0.6-0.1c0.1,0,0.2,0,0.2,0.1c0.2,0.3,0.4,0.6,0.9,0.5c0.4-0.1,0.8-0.4,0.7-0.8
		c-0.1-1.2-2.6-1.2-2.9-2.8c-0.1-0.9,0.5-1.7,1.4-1.8c0.8-0.1,1.6,0.3,1.8,1.2c0,0.1,0,0.2-0.1,0.2l-0.5,0.1c-0.1,0-0.2,0-0.2-0.1
		c-0.1-0.3-0.4-0.6-0.8-0.5c-0.4,0-0.6,0.4-0.6,0.7c0.1,1,2.7,1.1,2.9,2.9c0.1,1-0.7,1.7-1.6,1.9
		C146.8,395.8,146.1,395.3,145.8,394.5z"/>
	<path d="M152,386.6c0-0.4,0.2-0.7,0.6-0.8c0.4,0,0.7,0.2,0.8,0.6c0.1,0.4-0.2,0.7-0.6,0.8C152.4,387.3,152.1,387,152,386.6z
		 M153.5,388.8l0.7,5.7c0,0.2,0,0.3-0.2,0.3l-0.5,0.1c-0.2,0-0.3,0-0.3-0.2l-0.7-5.7c0-0.2,0-0.3,0.2-0.3l0.5-0.1
		C153.4,388.6,153.5,388.6,153.5,388.8z"/>
	<path d="M158.8,389.7l0.5,4.1c0,0.2,0,0.3-0.2,0.3l-0.5,0.1c-0.2,0-0.3,0-0.3-0.2l-0.5-4c-0.1-0.8-0.6-1-1-0.9
		c-0.4,0.1-0.8,0.5-0.7,1.2l0.5,4c0,0.2,0,0.3-0.2,0.3l-0.5,0.1c-0.2,0-0.3,0-0.3-0.2l-0.7-5.7c0-0.2,0-0.3,0.2-0.3l0.4,0
		c0.2,0,0.2,0,0.3,0.2l0.1,0.3c0.2-0.3,0.5-0.7,1-0.8C157.6,387.8,158.6,388.3,158.8,389.7z"/>
	<path d="M163.3,393.3l-1.1-8.4c0-0.2,0-0.3,0.2-0.3l0.4-0.1c0.2,0,0.3,0.1,0.3,0.2l2.7,6.3c0,0.1,0.1,0.1,0.1,0l1-6.8
		c0-0.1,0.1-0.3,0.2-0.3l0.4-0.1c0.2,0,0.3,0,0.3,0.2l1.1,8.4c0,0.2,0,0.3-0.2,0.3l-0.6,0.1c-0.2,0-0.3,0-0.3-0.2l-0.6-4.7
		c0-0.1-0.1-0.1-0.1,0l-0.7,4.9c0,0.2-0.1,0.3-0.3,0.3l-0.1,0c-0.2,0-0.3,0-0.3-0.2l-1.9-4.6c0-0.1-0.2-0.1-0.1,0l0.6,4.7
		c0,0.2,0,0.3-0.2,0.3l-0.6,0.1C163.4,393.5,163.3,393.4,163.3,393.3z"/>
	<path d="M170.1,390.6l-0.3-2.1c-0.2-1.5,0.7-2.3,1.6-2.4c0.9-0.1,2,0.3,2.2,1.9l0.3,2.1c0.2,1.6-0.7,2.3-1.6,2.4
		C171.3,392.6,170.3,392.1,170.1,390.6z M171.5,387c-0.4,0.1-0.8,0.4-0.7,1.2l0.3,2.4c0.1,0.8,0.6,1,1,0.9c0.4-0.1,0.8-0.4,0.7-1.2
		l-0.3-2.4C172.4,387.2,171.9,387,171.5,387z"/>
	<path d="M175.4,390.2l-0.5-3.5c0-0.1-0.1-0.2-0.2-0.1l-0.2,0c-0.2,0-0.3,0-0.3-0.2l0-0.3c0-0.2,0-0.3,0.2-0.3l0.3,0
		c0.1,0,0.1-0.1,0.1-0.2l-0.1-0.9c0-0.2,0-0.3,0.2-0.3l0.5-0.1c0.2,0,0.3,0.1,0.3,0.2l0.1,0.9c0,0.1,0.1,0.1,0.2,0.1l0.6-0.1
		c0.2,0,0.3,0,0.3,0.2l0,0.3c0,0.2,0,0.3-0.2,0.3l-0.6,0.1c-0.1,0-0.1,0.1-0.1,0.2l0.5,3.5c0.1,0.5,0.4,0.8,0.9,0.7
		c0.2,0,0.3,0,0.3,0.2l0.1,0.4c0,0.2,0,0.3-0.2,0.3C176.2,391.8,175.5,391.4,175.4,390.2z"/>
	<path d="M177.2,383.3c0-0.4,0.2-0.7,0.6-0.8c0.4,0,0.7,0.2,0.8,0.6c0.1,0.4-0.2,0.7-0.6,0.8C177.6,383.9,177.3,383.7,177.2,383.3z
		 M178.7,385.5l0.7,5.7c0,0.2,0,0.3-0.2,0.3l-0.5,0.1c-0.2,0-0.3,0-0.3-0.2l-0.7-5.7c0-0.2,0-0.3,0.2-0.3l0.5-0.1
		C178.6,385.2,178.7,385.3,178.7,385.5z"/>
	<path d="M180.5,389.2l-0.3-2.1c-0.2-1.5,0.7-2.3,1.6-2.4c0.9-0.1,2,0.3,2.2,1.9l0.3,2.1c0.2,1.6-0.7,2.3-1.6,2.4
		C181.7,391.2,180.7,390.7,180.5,389.2z M181.9,385.6c-0.4,0.1-0.8,0.4-0.7,1.2l0.3,2.4c0.1,0.8,0.6,1,1,0.9
		c0.4-0.1,0.8-0.4,0.7-1.2l-0.3-2.4C182.8,385.8,182.3,385.6,181.9,385.6z"/>
	<path d="M188.9,385.7l0.5,4.1c0,0.2,0,0.3-0.2,0.3l-0.5,0.1c-0.2,0-0.3,0-0.3-0.2l-0.5-4c-0.1-0.8-0.6-1-1-0.9
		c-0.4,0.1-0.8,0.5-0.7,1.2l0.5,4c0,0.2,0,0.3-0.2,0.3l-0.5,0.1c-0.2,0-0.3,0-0.3-0.2l-0.7-5.7c0-0.2,0-0.3,0.2-0.3l0.4,0
		c0.2,0,0.2,0,0.3,0.2l0.1,0.3c0.2-0.3,0.5-0.7,1-0.8C187.7,383.8,188.7,384.4,188.9,385.7z"/>
	<path d="M200.1,385l0,0.3c0,0.2,0,0.3-0.2,0.3l-6.8,0.9c-0.2,0-0.3,0-0.3-0.2l0-0.3c0-0.2,0-0.3,0.2-0.3l6.8-0.9
		C200,384.7,200.1,384.8,200.1,385z"/>
	<path d="M204.1,385.7l-0.6-4.2c-0.2-1.6,0.5-2.6,1.8-2.8c1.2-0.2,2.1,0.6,2.3,1.7c0,0.1,0,0.2-0.1,0.2l-0.7,0.1
		c-0.1,0-0.2,0-0.2-0.1c-0.2-0.5-0.6-0.9-1.1-0.8c-0.6,0.1-1,0.7-0.9,1.6l0.6,4.2c0.1,1,0.6,1.4,1.2,1.3c0.5-0.1,0.8-0.5,0.9-1.1
		c0-0.1,0-0.2,0.2-0.2l0.7-0.1c0.1,0,0.2,0.1,0.2,0.2c0.1,1.1-0.5,2-1.8,2.2C205.2,388.1,204.3,387.3,204.1,385.7z"/>
	<path d="M211.7,386.5l0.1,0.4c0,0.2,0,0.3-0.2,0.3c-1.2,0.2-1.8-0.3-1.9-1.5l-0.9-6.9c0-0.2,0-0.3,0.2-0.3l0.5-0.1
		c0.2,0,0.3,0,0.3,0.2l0.9,7c0.1,0.5,0.4,0.7,0.8,0.7C211.6,386.2,211.7,386.3,211.7,386.5z"/>
	<path d="M212.4,385l-0.3-2.1c-0.2-1.5,0.7-2.3,1.6-2.4c0.9-0.1,2,0.3,2.2,1.9l0.3,2.1c0.2,1.6-0.7,2.3-1.6,2.4
		C213.7,387,212.6,386.5,212.4,385z M213.8,381.4c-0.4,0.1-0.8,0.4-0.7,1.2l0.3,2.4c0.1,0.8,0.6,1,1,0.9c0.4-0.1,0.8-0.4,0.7-1.2
		l-0.3-2.4C214.7,381.6,214.2,381.4,213.8,381.4z"/>
	<path d="M220.7,379.9l0.7,5.7c0,0.2,0,0.3-0.2,0.3l-0.4,0c-0.2,0-0.2,0-0.3-0.2l-0.1-0.3c-0.2,0.3-0.5,0.7-1,0.8
		c-0.8,0.2-1.8-0.3-2-1.7l-0.5-4.1c0-0.2,0-0.3,0.2-0.3l0.5-0.1c0.2,0,0.3,0,0.3,0.2l0.5,4c0.1,0.8,0.6,1,1,0.9
		c0.4-0.1,0.8-0.5,0.7-1.2l-0.5-4c0-0.2,0-0.3,0.2-0.3l0.5-0.1C220.6,379.7,220.6,379.8,220.7,379.9z"/>
	<path d="M225.3,376.5l1.1,8.4c0,0.2,0,0.3-0.2,0.3l-0.4,0c-0.2,0-0.2-0.1-0.3-0.2l-0.1-0.3c-0.2,0.3-0.5,0.7-1,0.8
		c-0.8,0.2-1.8-0.3-2-1.7l-0.2-1.3l-0.2-1.3c-0.2-1.4,0.6-2.1,1.5-2.1c0.4,0,0.8,0.2,1.1,0.5l-0.4-3c0-0.2,0-0.3,0.2-0.3l0.5-0.1
		C225.2,376.3,225.2,376.3,225.3,376.5z M225.2,383.4l-0.3-2.4c-0.1-0.7-0.6-1-1-0.9c-0.4,0-0.9,0.4-0.8,1.2l0.2,1.2l0.2,1.2
		c0.1,0.8,0.6,1,1,0.9C224.9,384.5,225.2,384.1,225.2,383.4z"/>
	<path d="M230.1,382.3l-0.6-4.2c-0.2-1.6,0.5-2.6,1.8-2.8c1.2-0.2,2.1,0.6,2.3,1.7c0,0.1,0,0.2-0.1,0.2l-0.7,0.1
		c-0.1,0-0.2,0-0.2-0.1c-0.2-0.5-0.6-0.9-1.1-0.8c-0.6,0.1-1,0.7-0.9,1.6l0.6,4.2c0.1,1,0.6,1.4,1.2,1.3c0.5-0.1,0.8-0.5,0.9-1.1
		c0-0.1,0-0.2,0.2-0.2l0.7-0.1c0.1,0,0.2,0.1,0.2,0.2c0.1,1.1-0.5,2-1.8,2.2C231.2,384.7,230.3,383.8,230.1,382.3z"/>
	<path d="M234.5,375.7c0-0.4,0.2-0.7,0.6-0.8c0.4,0,0.7,0.2,0.8,0.6c0.1,0.4-0.2,0.7-0.6,0.8C234.9,376.3,234.5,376.1,234.5,375.7z
		 M236,377.9l0.7,5.7c0,0.2,0,0.3-0.2,0.3l-0.5,0.1c-0.2,0-0.3,0-0.3-0.2L235,378c0-0.2,0-0.3,0.2-0.3l0.5-0.1
		C235.9,377.7,236,377.7,236,377.9z"/>
	<path d="M238.1,381.9l-0.5-3.5c0-0.1-0.1-0.1-0.2-0.1l-0.2,0c-0.2,0-0.3,0-0.3-0.2l0-0.3c0-0.2,0-0.3,0.2-0.3l0.3,0
		c0.1,0,0.1-0.1,0.1-0.2l-0.1-0.9c0-0.2,0-0.3,0.2-0.3l0.5-0.1c0.2,0,0.3,0.1,0.3,0.2l0.1,0.9c0,0.1,0.1,0.1,0.2,0.1l0.6-0.1
		c0.2,0,0.3,0,0.3,0.2l0,0.3c0,0.2,0,0.3-0.2,0.3l-0.6,0.1c-0.1,0-0.1,0.1-0.1,0.2l0.5,3.5c0.1,0.5,0.4,0.8,0.9,0.7
		c0.2,0,0.3,0,0.3,0.2l0.1,0.4c0,0.2,0,0.3-0.2,0.3C238.9,383.5,238.3,383.1,238.1,381.9z"/>
	<path d="M240,375c0-0.4,0.2-0.7,0.6-0.8c0.4,0,0.7,0.2,0.8,0.6c0.1,0.4-0.2,0.7-0.6,0.8C240.4,375.6,240,375.3,240,375z
		 M241.5,377.2l0.7,5.7c0,0.2,0,0.3-0.2,0.3l-0.5,0.1c-0.2,0-0.3,0-0.3-0.2l-0.7-5.7c0-0.2,0-0.3,0.2-0.3l0.5-0.1
		C241.4,376.9,241.4,377,241.5,377.2z"/>
	<path d="M246.6,378.3l0,0.2c0,0.2,0,0.4,0.1,0.6c0,0.2,0,0.3-0.2,0.3l-2.3,0.3c-0.1,0-0.1,0-0.1,0.1l0.1,1c0.1,0.8,0.6,1,1,0.9
		c0.4-0.1,0.6-0.4,0.7-0.7c0-0.1,0.1-0.2,0.2-0.2l0.6-0.1c0.1,0,0.2,0.1,0.2,0.2c0,1-0.7,1.5-1.5,1.7c-0.9,0.1-2-0.3-2.2-2l-0.2-1.9
		c-0.2-1.7,0.7-2.4,1.6-2.5C245.4,376.3,246.4,376.7,246.6,378.3z M244.6,377.3c-0.4,0.1-0.9,0.4-0.8,1.2l0.1,0.4
		c0,0.1,0,0.1,0.1,0.1l1.6-0.2c0.1,0,0.1,0,0.1-0.1l-0.1-0.4C245.6,377.4,245,377.3,244.6,377.3z"/>
	<path d="M248,381c0-0.1,0-0.2,0.1-0.2l0.6-0.1c0.1,0,0.2,0,0.2,0.1c0.2,0.3,0.4,0.6,0.9,0.5c0.4-0.1,0.8-0.4,0.7-0.8
		c-0.1-1.2-2.6-1.2-2.9-2.8c-0.1-0.9,0.5-1.7,1.4-1.8c0.8-0.1,1.6,0.3,1.8,1.2c0,0.1,0,0.2-0.1,0.2l-0.5,0.1c-0.1,0-0.2,0-0.2-0.1
		c-0.1-0.3-0.4-0.6-0.8-0.5c-0.4,0-0.6,0.4-0.6,0.7c0.1,1,2.7,1.1,2.9,2.9c0.1,1-0.7,1.7-1.6,1.9C249,382.3,248.3,381.8,248,381z"/>
</g>
<g>
	<polygon points="134.5,615 133.9,614.3 393.2,392.1 497.9,613.4 497,613.8 392.9,393.7 	"/>
</g>
<g>
	<path d="M110.6,336.7l0.1,0.5c0,0.2,0,0.3-0.2,0.3l-1,0.1c-0.2,0-0.2,0.1-0.2,0.3l1,7.5c0,0.2,0,0.3-0.2,0.3l-0.6,0.1
		c-0.2,0-0.3,0-0.3-0.2l-1-7.5c0-0.2-0.1-0.2-0.3-0.2l-1,0.1c-0.2,0-0.3,0-0.3-0.2l-0.1-0.5c0-0.2,0-0.3,0.2-0.3l3.6-0.5
		C110.5,336.4,110.6,336.5,110.6,336.7z"/>
	<path d="M111.9,343.3l-0.3-2.1c-0.2-1.5,0.7-2.3,1.6-2.4c0.9-0.1,2,0.3,2.2,1.9l0.3,2.1c0.2,1.6-0.7,2.3-1.6,2.4
		C113.2,345.3,112.1,344.8,111.9,343.3z M113.3,339.7c-0.4,0.1-0.8,0.4-0.7,1.2l0.3,2.4c0.1,0.8,0.6,1,1,0.9
		c0.4-0.1,0.8-0.4,0.7-1.2l-0.3-2.4C114.3,339.9,113.8,339.7,113.3,339.7z"/>
	<path d="M122.9,339.5l0.5,4.1c0,0.2,0,0.3-0.2,0.3l-0.5,0.1c-0.2,0-0.3,0-0.3-0.2l-0.5-4c-0.1-0.8-0.6-1-1-0.9
		c-0.4,0.1-0.8,0.5-0.7,1.2l0.5,4c0,0.2,0,0.3-0.2,0.3l-0.5,0.1c-0.2,0-0.3,0-0.3-0.2l-0.5-4c-0.1-0.8-0.6-1-1-0.9
		c-0.4,0.1-0.8,0.5-0.7,1.2l0.5,4c0,0.2,0,0.3-0.2,0.3l-0.5,0.1c-0.2,0-0.3,0-0.3-0.2l-0.7-5.7c0-0.2,0-0.3,0.2-0.3l0.4,0
		c0.2,0,0.2,0,0.3,0.2l0.1,0.3c0.2-0.3,0.5-0.7,0.9-0.8c0.6-0.1,1.2,0,1.6,0.6c0.2-0.5,0.6-0.8,1.1-1
		C121.8,337.6,122.8,338.1,122.9,339.5z"/>
	<path d="M124.5,341.9c-0.2-1.7,0.9-2.2,2.4-2.6l0-0.3c-0.1-0.7-0.6-0.9-1-0.9c-0.4,0.1-0.7,0.4-0.7,0.7c0,0.1-0.1,0.2-0.2,0.2
		l-0.5,0.1c-0.1,0-0.2-0.1-0.2-0.2c-0.1-0.9,0.6-1.5,1.5-1.7c0.9-0.1,1.9,0.3,2.1,1.8l0.4,3c0.1,0.4,0.2,0.7,0.2,0.9
		c0.1,0.2,0,0.2-0.2,0.3l-0.5,0.1c-0.2,0-0.2,0-0.4-0.5c-0.2,0.4-0.6,0.6-1,0.7C125.7,343.7,124.7,343.2,124.5,341.9z M125.8,334
		c0.1-0.1,0.2-0.2,0.4,0l0.3,0.2c0.1,0.1,0.2,0.2,0,0.3l-1.3,1.6c-0.1,0.1-0.2,0.2-0.4,0l-0.3-0.2c-0.1-0.1-0.2-0.2,0-0.4L125.8,334
		z M127.2,341.4l-0.2-1.5c-1.2,0.4-1.7,0.7-1.5,1.8c0.1,0.7,0.6,1,1,0.9C126.9,342.5,127.3,342.1,127.2,341.4z"/>
	<path d="M129.4,341.7c0-0.1,0-0.2,0.1-0.2l0.6-0.1c0.1,0,0.2,0,0.2,0.1c0.1,0.3,0.4,0.6,0.9,0.5c0.4-0.1,0.8-0.4,0.7-0.8
		c-0.1-1.2-2.6-1.2-2.8-2.8c-0.1-0.9,0.5-1.7,1.4-1.8c0.8-0.1,1.6,0.3,1.8,1.2c0,0.1,0,0.2-0.1,0.2l-0.5,0.1c-0.1,0-0.2,0-0.2-0.1
		c-0.1-0.3-0.4-0.6-0.8-0.5c-0.4,0-0.6,0.4-0.6,0.7c0.1,1,2.7,1.1,2.9,2.9c0.1,1-0.7,1.7-1.6,1.9C130.4,343,129.6,342.6,129.4,341.7
		z"/>
	<path d="M138.9,341.9c-1.2,0.2-2.3-0.6-2.5-1.8c0-0.1,0-0.2,0.1-0.2l0.6-0.1c0.1,0,0.2,0,0.2,0.1c0.2,0.6,0.7,1.1,1.4,1
		c0.6-0.1,1-0.6,1-1.3c-0.2-1.8-3.6-2.5-3.9-4.7c-0.1-1.1,0.6-2.1,1.7-2.2c1.2-0.2,2,0.6,2.2,1.6c0,0.1,0,0.2-0.1,0.2l-0.6,0.1
		c-0.1,0-0.2,0-0.2-0.1c-0.2-0.5-0.6-0.9-1.1-0.9c-0.5,0.1-0.9,0.6-0.8,1.1c0.3,1.4,3.5,2.3,3.8,4.6
		C141,340.8,140,341.8,138.9,341.9z"/>
	<path d="M142,339.6c-0.2-1.7,0.9-2.2,2.4-2.6l0-0.3c-0.1-0.7-0.6-0.9-1-0.9c-0.4,0.1-0.7,0.4-0.7,0.7c0,0.1-0.1,0.2-0.2,0.2
		l-0.5,0.1c-0.1,0-0.2-0.1-0.2-0.2c-0.1-0.9,0.6-1.5,1.5-1.7c0.9-0.1,1.9,0.3,2.1,1.8l0.4,3c0.1,0.4,0.2,0.7,0.2,0.9
		c0.1,0.2,0,0.2-0.2,0.3l-0.5,0.1c-0.2,0-0.2,0-0.4-0.5c-0.2,0.4-0.6,0.6-1,0.7C143.1,341.5,142.1,341,142,339.6z M144.7,339.2
		l-0.2-1.5c-1.2,0.4-1.7,0.7-1.5,1.8c0.1,0.7,0.6,1,1,0.9C144.4,340.2,144.8,339.8,144.7,339.2z"/>
	<path d="M148.8,334.5l0.1,0.5c0,0.2,0,0.3-0.2,0.3c-0.6,0.1-1,0.5-0.9,1.2l0.5,3.8c0,0.2,0,0.3-0.2,0.3l-0.5,0.1
		c-0.2,0-0.3,0-0.3-0.2l-0.7-5.7c0-0.2,0-0.3,0.2-0.3l0.4,0c0.2,0,0.2,0,0.3,0.2l0.1,0.3c0.3-0.4,0.7-0.7,1.1-0.7
		C148.7,334.3,148.7,334.3,148.8,334.5z"/>
	<path d="M150,338.5c-0.2-1.7,0.9-2.2,2.4-2.6l0-0.3c-0.1-0.7-0.6-0.9-1-0.9c-0.4,0.1-0.7,0.4-0.7,0.7c0,0.1-0.1,0.2-0.2,0.2
		l-0.5,0.1c-0.1,0-0.2-0.1-0.2-0.2c-0.1-0.9,0.6-1.5,1.5-1.7c0.9-0.1,1.9,0.3,2.1,1.8l0.4,3c0.1,0.4,0.2,0.7,0.2,0.9
		c0.1,0.2,0,0.2-0.2,0.3l-0.5,0.1c-0.2,0-0.2,0-0.4-0.5c-0.2,0.4-0.6,0.6-1,0.7C151.2,340.4,150.2,339.9,150,338.5z M152.7,338.1
		l-0.2-1.5c-1.2,0.4-1.7,0.7-1.5,1.8c0.1,0.7,0.6,1,1,0.9C152.4,339.2,152.8,338.8,152.7,338.1z"/>
	<path d="M158.6,337.9c0,1-0.7,1.5-1.5,1.7c-0.9,0.1-1.9-0.3-2.1-1.9l-0.3-2.1c-0.2-1.6,0.7-2.3,1.6-2.4c0.8-0.1,1.7,0.3,1.9,1.2
		c0,0.1,0,0.2-0.1,0.2l-0.6,0.1c-0.1,0-0.2,0-0.2-0.1c-0.1-0.3-0.4-0.5-0.8-0.5c-0.4,0.1-0.8,0.4-0.7,1.1l0.3,2.5
		c0.1,0.8,0.6,1,1,0.9c0.4-0.1,0.6-0.4,0.7-0.7c0-0.1,0.1-0.2,0.2-0.2l0.6-0.1C158.5,337.7,158.6,337.8,158.6,337.9z"/>
	<path d="M163.1,334.5l0,0.2c0,0.2,0,0.4,0.1,0.6c0,0.2,0,0.3-0.2,0.3l-2.3,0.3c-0.1,0-0.1,0-0.1,0.1l0.1,1c0.1,0.8,0.6,1,1,0.9
		c0.4-0.1,0.6-0.4,0.7-0.7c0-0.1,0.1-0.2,0.2-0.2l0.6-0.1c0.1,0,0.2,0.1,0.2,0.2c0,1-0.7,1.5-1.5,1.6c-0.9,0.1-2-0.3-2.2-2l-0.2-1.9
		c-0.2-1.7,0.7-2.4,1.6-2.5C161.9,332.5,162.9,332.9,163.1,334.5z M161.1,333.5c-0.4,0.1-0.9,0.4-0.8,1.2l0.1,0.4
		c0,0.1,0,0.1,0.1,0.1l1.6-0.2c0.1,0,0.1,0,0.1-0.1l-0.1-0.4C162,333.6,161.5,333.4,161.1,333.5z"/>
	<path d="M168.1,333.6l0.5,4.1c0,0.2,0,0.3-0.2,0.3l-0.5,0.1c-0.2,0-0.3,0-0.3-0.2l-0.5-4c-0.1-0.8-0.6-1-1-0.9
		c-0.4,0.1-0.8,0.5-0.7,1.2l0.5,4c0,0.2,0,0.3-0.2,0.3l-0.5,0.1c-0.2,0-0.3,0-0.3-0.2l-0.7-5.7c0-0.2,0-0.3,0.2-0.3l0.4,0
		c0.2,0,0.2,0,0.3,0.2l0.1,0.3c0.2-0.3,0.5-0.7,1-0.8C166.9,331.7,167.9,332.2,168.1,333.6z"/>
	<path d="M169.6,335.8l-0.3-2.1c-0.2-1.5,0.7-2.3,1.6-2.4c0.9-0.1,2,0.3,2.2,1.9l0.3,2.1c0.2,1.6-0.7,2.3-1.6,2.4
		C170.9,337.8,169.8,337.3,169.6,335.8z M171.1,332.2c-0.4,0.1-0.8,0.4-0.7,1.2l0.3,2.4c0.1,0.8,0.6,1,1,0.9
		c0.4-0.1,0.8-0.4,0.7-1.2l-0.3-2.4C172,332.4,171.5,332.2,171.1,332.2z"/>
</g>
<g>
	<rect x="543.6" y="367" transform="matrix(0.9843 -0.1764 0.1764 0.9843 -78.1091 103.661)" width="1" height="248.6"/>
</g>
</svg>
