<?xml version="1.0" encoding="utf-8"?>
<!-- Generator: Adobe Illustrator 22.0.1, SVG Export Plug-In . SVG Version: 6.00 Build 0)  -->
<svg version="1.1" id="Layer_1" xmlns="http://www.w3.org/2000/svg" xmlns:xlink="http://www.w3.org/1999/xlink" x="0px" y="0px"
	 viewBox="0 0 792 612" style="enable-background:new 0 0 792 612;" xml:space="preserve">
<style type="text/css">
	.st0{fill:#FFFFFF;stroke:#000000;stroke-miterlimit:10;}
	.st1{fill:none;stroke:#000000;stroke-miterlimit:10;}
	.st2{fill:#FFFFFF;}
	.st3{fill:#010101;}
</style>
<g>
	<path class="st3" d="M140.4,311.2c-1.9,0-3.3-1.4-3.3-3.2c0-0.2,0-0.3,0.2-0.3h1c0.2,0,0.3,0.1,0.3,0.2c0.1,0.9,0.8,1.8,1.9,1.8
		c1,0,1.7-0.7,1.7-1.7c0.1-2.7-4.8-4.3-4.8-7.7c0-1.7,1.2-3,3-3c1.8,0,2.9,1.3,3,2.9c0,0.2,0,0.3-0.2,0.3h-1c-0.2,0-0.3-0.1-0.3-0.3
		c-0.2-0.8-0.6-1.5-1.4-1.5c-0.8,0-1.4,0.7-1.4,1.5c0.1,2.2,4.8,4.1,4.8,7.6C143.7,309.9,142.1,311.2,140.4,311.2z"/>
	<path class="st3" d="M146.6,308.5v-5.3c0-0.2-0.1-0.2-0.2-0.2H146c-0.3,0-0.4-0.1-0.4-0.4v-0.5c0-0.3,0.1-0.4,0.4-0.4h0.4
		c0.2,0,0.2-0.1,0.2-0.2v-1.3c0-0.3,0.1-0.4,0.4-0.4h0.7c0.3,0,0.4,0.1,0.4,0.4v1.3c0,0.2,0.1,0.2,0.2,0.2h0.9
		c0.3,0,0.4,0.1,0.4,0.4v0.5c0,0.3-0.1,0.4-0.4,0.4h-0.9c-0.2,0-0.2,0.1-0.2,0.2v5.3c0,0.8,0.4,1.2,1.1,1.2c0.3,0,0.4,0.1,0.4,0.4
		v0.6c0,0.3-0.1,0.4-0.4,0.4C147.5,311,146.6,310.3,146.6,308.5z"/>
	<path class="st3" d="M151.4,298.5c0-0.6,0.5-1,1-1c0.6,0,1,0.5,1,1c0,0.6-0.5,1-1,1C151.8,299.5,151.4,299.1,151.4,298.5z
		 M153.2,302.1v8.6c0,0.3-0.1,0.4-0.4,0.4H152c-0.3,0-0.4-0.1-0.4-0.4v-8.6c0-0.3,0.1-0.4,0.4-0.4h0.8
		C153,301.7,153.2,301.8,153.2,302.1z"/>
	<path class="st3" d="M158.7,310v0.6c0,0.3-0.1,0.4-0.4,0.4c-1.8,0-2.6-0.8-2.6-2.6v-10.5c0-0.3,0.1-0.4,0.4-0.4h0.8
		c0.3,0,0.4,0.1,0.4,0.4v10.6c0,0.8,0.4,1.2,1.1,1.2C158.6,309.7,158.7,309.8,158.7,310z"/>
	<path class="st3" d="M163.7,310v0.6c0,0.3-0.1,0.4-0.4,0.4c-1.8,0-2.6-0.8-2.6-2.6v-10.5c0-0.3,0.1-0.4,0.4-0.4h0.8
		c0.3,0,0.4,0.1,0.4,0.4v10.6c0,0.8,0.4,1.2,1.1,1.2C163.6,309.7,163.7,309.8,163.7,310z"/>
	<path class="st3" d="M171.5,304.4v6.2c0,0.3-0.1,0.4-0.4,0.4h-0.8c-0.3,0-0.4-0.1-0.4-0.4v-6.1c0-1.2-0.7-1.6-1.4-1.6
		c-0.6,0-1.3,0.5-1.3,1.6v6.1c0,0.3-0.1,0.4-0.4,0.4h-0.8c-0.3,0-0.4-0.1-0.4-0.4v-8.6c0-0.3,0.1-0.4,0.4-0.4h0.6
		c0.3,0,0.3,0.1,0.4,0.4l0.1,0.5c0.4-0.5,0.9-0.9,1.6-1C170.1,301.4,171.5,302.4,171.5,304.4z"/>
	<path class="st3" d="M179.6,304.8v0.3c0,0.4,0,0.6,0,1c0,0.3-0.1,0.4-0.4,0.4h-3.5c-0.1,0-0.2,0-0.2,0.2v1.6c0,1.1,0.7,1.5,1.3,1.5
		c0.6,0,1-0.4,1.2-0.9c0.1-0.2,0.1-0.2,0.3-0.2h0.9c0.2,0,0.3,0.2,0.2,0.3c-0.2,1.4-1.3,2.2-2.6,2.2c-1.4,0-2.8-0.9-2.8-3.4v-2.9
		c0-2.5,1.5-3.4,2.8-3.4C178.2,301.5,179.6,302.3,179.6,304.8z M176.9,302.9c-0.6,0-1.4,0.4-1.4,1.6v0.6c0,0.1,0,0.2,0.2,0.2h2.4
		c0.1,0,0.2,0,0.2-0.2v-0.6C178.2,303.3,177.5,302.9,176.9,302.9z"/>
	<path class="st3" d="M181.8,309c0-0.2,0-0.3,0.2-0.3h0.9c0.2,0,0.3,0.1,0.3,0.2c0.2,0.5,0.5,0.9,1.2,0.9c0.6,0,1.2-0.4,1.2-1.1
		c0-1.8-3.6-2.3-3.7-4.8c0-1.4,1.1-2.4,2.5-2.4c1.2,0,2.3,0.8,2.4,2.2c0,0.2,0,0.3-0.2,0.3h-0.8c-0.2,0-0.3-0.1-0.3-0.2
		c-0.1-0.4-0.4-0.9-1-0.9c-0.6,0-1,0.5-1,1c0,1.5,3.8,2.1,3.7,4.9c0,1.6-1.3,2.5-2.7,2.5C183.1,311.2,182.1,310.3,181.8,309z"/>
	<path class="st3" d="M189.2,309c0-0.2,0-0.3,0.2-0.3h0.9c0.2,0,0.3,0.1,0.3,0.2c0.2,0.5,0.5,0.9,1.2,0.9c0.6,0,1.2-0.4,1.2-1.1
		c0-1.8-3.6-2.3-3.7-4.8c0-1.4,1.1-2.4,2.5-2.4c1.2,0,2.3,0.8,2.4,2.2c0,0.2,0,0.3-0.2,0.3h-0.8c-0.2,0-0.3-0.1-0.3-0.2
		c-0.1-0.4-0.4-0.9-1-0.9c-0.6,0-1,0.5-1,1c0,1.5,3.8,2.1,3.7,4.9c0,1.6-1.3,2.5-2.7,2.5C190.4,311.2,189.4,310.3,189.2,309z"/>
	<path class="st3" d="M201.2,298.5c0-0.6,0.5-1,1-1c0.6,0,1,0.5,1,1c0,0.6-0.5,1-1,1C201.7,299.5,201.2,299.1,201.2,298.5z
		 M203,302.1v8.6c0,0.3-0.1,0.4-0.4,0.4h-0.8c-0.3,0-0.4-0.1-0.4-0.4v-8.6c0-0.3,0.1-0.4,0.4-0.4h0.8
		C202.9,301.7,203,301.8,203,302.1z"/>
	<path class="st3" d="M211.3,304.4v6.2c0,0.3-0.1,0.4-0.4,0.4h-0.8c-0.3,0-0.4-0.1-0.4-0.4v-6.1c0-1.2-0.7-1.6-1.4-1.6
		c-0.6,0-1.3,0.5-1.3,1.6v6.1c0,0.3-0.1,0.4-0.4,0.4H206c-0.3,0-0.4-0.1-0.4-0.4v-8.6c0-0.3,0.1-0.4,0.4-0.4h0.6
		c0.3,0,0.3,0.1,0.4,0.4l0.1,0.5c0.4-0.5,0.9-0.9,1.6-1C210,301.4,211.3,302.4,211.3,304.4z"/>
	<path class="st3" d="M218.7,310.6v-12.7c0-0.3,0.1-0.4,0.4-0.4h0.6c0.3,0,0.4,0.2,0.4,0.4l2.8,9.9c0,0.1,0.2,0.1,0.2,0l2.8-9.9
		c0.1-0.2,0.1-0.4,0.4-0.4h0.7c0.3,0,0.4,0.1,0.4,0.4v12.7c0,0.3-0.1,0.4-0.4,0.4h-0.9c-0.3,0-0.4-0.1-0.4-0.4v-7.2
		c0-0.1-0.2-0.2-0.2,0l-2,7.2c-0.1,0.3-0.2,0.4-0.5,0.4H223c-0.3,0-0.4-0.1-0.5-0.4l-1.9-7.2c-0.1-0.2-0.2-0.1-0.2,0v7.2
		c0,0.3-0.1,0.4-0.4,0.4h-0.9C218.8,311,218.7,310.9,218.7,310.6z"/>
	<path class="st3" d="M229.9,307.9v-3.2c0-2.3,1.5-3.2,2.8-3.2c1.4,0,2.9,0.9,2.9,3.2v3.2c0,2.4-1.5,3.2-2.9,3.2
		C231.4,311.2,229.9,310.3,229.9,307.9z M232.8,303c-0.6,0-1.3,0.4-1.3,1.6v3.6c0,1.2,0.7,1.6,1.3,1.6c0.6,0,1.3-0.4,1.3-1.6v-3.6
		C234.1,303.3,233.4,303,232.8,303z"/>
	<path class="st3" d="M238.6,308.5v-5.3c0-0.2-0.1-0.2-0.2-0.2H238c-0.3,0-0.4-0.1-0.4-0.4v-0.5c0-0.3,0.1-0.4,0.4-0.4h0.4
		c0.2,0,0.2-0.1,0.2-0.2v-1.3c0-0.3,0.1-0.4,0.4-0.4h0.7c0.3,0,0.4,0.1,0.4,0.4v1.3c0,0.2,0.1,0.2,0.2,0.2h0.9
		c0.3,0,0.4,0.1,0.4,0.4v0.5c0,0.3-0.1,0.4-0.4,0.4h-0.9c-0.2,0-0.2,0.1-0.2,0.2v5.3c0,0.8,0.4,1.2,1.1,1.2c0.3,0,0.4,0.1,0.4,0.4
		v0.6c0,0.3-0.1,0.4-0.4,0.4C239.4,311,238.6,310.3,238.6,308.5z"/>
	<path class="st3" d="M243.3,298.5c0-0.6,0.5-1,1-1c0.6,0,1,0.5,1,1c0,0.6-0.5,1-1,1C243.8,299.5,243.3,299.1,243.3,298.5z
		 M245.2,302.1v8.6c0,0.3-0.1,0.4-0.4,0.4H244c-0.3,0-0.4-0.1-0.4-0.4v-8.6c0-0.3,0.1-0.4,0.4-0.4h0.8
		C245,301.7,245.2,301.8,245.2,302.1z"/>
	<path class="st3" d="M247.7,307.9v-3.2c0-2.3,1.5-3.2,2.8-3.2c1.4,0,2.9,0.9,2.9,3.2v3.2c0,2.4-1.5,3.2-2.9,3.2
		C249.2,311.2,247.7,310.3,247.7,307.9z M250.5,303c-0.6,0-1.3,0.4-1.3,1.6v3.6c0,1.2,0.7,1.6,1.3,1.6c0.6,0,1.3-0.4,1.3-1.6v-3.6
		C251.8,303.3,251.1,303,250.5,303z"/>
	<path class="st3" d="M261.6,304.4v6.2c0,0.3-0.1,0.4-0.4,0.4h-0.8c-0.3,0-0.4-0.1-0.4-0.4v-6.1c0-1.2-0.7-1.6-1.4-1.6
		c-0.6,0-1.3,0.5-1.3,1.6v6.1c0,0.3-0.1,0.4-0.4,0.4h-0.8c-0.3,0-0.4-0.1-0.4-0.4v-8.6c0-0.3,0.1-0.4,0.4-0.4h0.6
		c0.3,0,0.3,0.1,0.4,0.4l0.1,0.5c0.4-0.5,0.9-0.9,1.6-1C260.2,301.4,261.6,302.4,261.6,304.4z"/>
</g>
<g>
	<path class="st3" d="M618.5,307.4v-6.3c0-2.4,1.2-3.8,3.2-3.8c1.9,0,3,1.2,3.1,2.9c0,0.2,0,0.3-0.2,0.3h-1c-0.2,0-0.3-0.1-0.3-0.3
		c-0.2-0.8-0.7-1.5-1.5-1.5c-0.9,0-1.6,0.8-1.6,2.2v6.3c0,1.4,0.6,2.2,1.6,2.2c0.8,0,1.4-0.6,1.5-1.5c0-0.2,0.1-0.3,0.3-0.3h1
		c0.2,0,0.2,0.2,0.2,0.3c-0.1,1.7-1.2,2.9-3.1,2.9C619.7,311.2,618.5,309.8,618.5,307.4z"/>
	<path class="st3" d="M630.3,310v0.6c0,0.3-0.1,0.4-0.4,0.4c-1.8,0-2.6-0.8-2.6-2.6v-10.5c0-0.3,0.1-0.4,0.4-0.4h0.8
		c0.3,0,0.4,0.1,0.4,0.4v10.6c0,0.8,0.4,1.2,1.1,1.2C630.2,309.7,630.3,309.8,630.3,310z"/>
	<path class="st3" d="M632.3,307.9v-3.2c0-2.3,1.5-3.2,2.8-3.2c1.4,0,2.9,0.9,2.9,3.2v3.2c0,2.4-1.5,3.2-2.9,3.2
		C633.7,311.2,632.3,310.3,632.3,307.9z M635.1,303c-0.6,0-1.3,0.4-1.3,1.6v3.6c0,1.2,0.7,1.6,1.3,1.6c0.6,0,1.3-0.4,1.3-1.6v-3.6
		C636.4,303.3,635.7,303,635.1,303z"/>
	<path class="st3" d="M646.2,302.1v8.6c0,0.3-0.1,0.4-0.4,0.4h-0.6c-0.3,0-0.3-0.1-0.4-0.4l-0.1-0.5c-0.4,0.5-0.9,0.9-1.6,1
		c-1.3,0.2-2.6-0.8-2.6-2.9v-6.2c0-0.3,0.1-0.4,0.4-0.4h0.8c0.3,0,0.4,0.1,0.4,0.4v6.1c0,1.2,0.7,1.6,1.4,1.6c0.6,0,1.3-0.5,1.3-1.6
		v-6.1c0-0.3,0.1-0.4,0.4-0.4h0.8C646.1,301.7,646.2,301.8,646.2,302.1z"/>
	<path class="st3" d="M654.4,297.9v12.7c0,0.3-0.1,0.4-0.4,0.4h-0.6c-0.3,0-0.3-0.1-0.4-0.4l-0.1-0.5c-0.4,0.5-0.9,0.9-1.6,1
		c-1.3,0.2-2.6-0.8-2.6-2.9v-1.9v-1.9c0-2.1,1.4-3,2.6-2.9c0.6,0.1,1.2,0.5,1.5,0.9v-4.6c0-0.3,0.1-0.4,0.4-0.4h0.8
		C654.3,297.5,654.4,297.6,654.4,297.9z M652.9,308.2v-3.6c0-1.1-0.6-1.6-1.3-1.6c-0.6,0-1.4,0.4-1.4,1.6v1.8v1.8
		c0,1.2,0.7,1.6,1.4,1.6C652.3,309.8,652.9,309.2,652.9,308.2z"/>
	<path class="st3" d="M661.7,307.4v-6.3c0-2.4,1.2-3.8,3.2-3.8c1.9,0,3,1.2,3.1,2.9c0,0.2,0,0.3-0.2,0.3h-1c-0.2,0-0.3-0.1-0.3-0.3
		c-0.2-0.8-0.7-1.5-1.5-1.5c-0.9,0-1.6,0.8-1.6,2.2v6.3c0,1.4,0.6,2.2,1.6,2.2c0.8,0,1.4-0.6,1.5-1.5c0-0.2,0.1-0.3,0.3-0.3h1
		c0.2,0,0.2,0.2,0.2,0.3c-0.1,1.7-1.2,2.9-3.1,2.9C662.9,311.2,661.7,309.8,661.7,307.4z"/>
	<path class="st3" d="M670.3,298.5c0-0.6,0.5-1,1-1c0.6,0,1,0.5,1,1c0,0.6-0.5,1-1,1C670.8,299.5,670.3,299.1,670.3,298.5z
		 M672.1,302.1v8.6c0,0.3-0.1,0.4-0.4,0.4h-0.8c-0.3,0-0.4-0.1-0.4-0.4v-8.6c0-0.3,0.1-0.4,0.4-0.4h0.8
		C672,301.7,672.1,301.8,672.1,302.1z"/>
	<path class="st3" d="M675.1,308.5v-5.3c0-0.2-0.1-0.2-0.2-0.2h-0.3c-0.3,0-0.4-0.1-0.4-0.4v-0.5c0-0.3,0.1-0.4,0.4-0.4h0.4
		c0.2,0,0.2-0.1,0.2-0.2v-1.3c0-0.3,0.1-0.4,0.4-0.4h0.7c0.3,0,0.4,0.1,0.4,0.4v1.3c0,0.2,0.1,0.2,0.2,0.2h0.9
		c0.3,0,0.4,0.1,0.4,0.4v0.5c0,0.3-0.1,0.4-0.4,0.4h-0.9c-0.2,0-0.2,0.1-0.2,0.2v5.3c0,0.8,0.4,1.2,1.1,1.2c0.3,0,0.4,0.1,0.4,0.4
		v0.6c0,0.3-0.1,0.4-0.4,0.4C676,311,675.1,310.3,675.1,308.5z"/>
	<path class="st3" d="M679.9,298.5c0-0.6,0.5-1,1-1c0.6,0,1,0.5,1,1c0,0.6-0.5,1-1,1C680.3,299.5,679.9,299.1,679.9,298.5z
		 M681.7,302.1v8.6c0,0.3-0.1,0.4-0.4,0.4h-0.8c-0.3,0-0.4-0.1-0.4-0.4v-8.6c0-0.3,0.1-0.4,0.4-0.4h0.8
		C681.6,301.7,681.7,301.8,681.7,302.1z"/>
	<path class="st3" d="M689.8,304.8v0.3c0,0.4,0,0.6,0,1c0,0.3-0.1,0.4-0.4,0.4h-3.5c-0.1,0-0.2,0-0.2,0.2v1.6c0,1.1,0.7,1.5,1.3,1.5
		c0.6,0,1-0.4,1.2-0.9c0.1-0.2,0.1-0.2,0.3-0.2h0.9c0.2,0,0.3,0.2,0.2,0.3c-0.2,1.4-1.3,2.2-2.6,2.2c-1.4,0-2.8-0.9-2.8-3.4v-2.9
		c0-2.5,1.5-3.4,2.8-3.4C688.4,301.5,689.8,302.3,689.8,304.8z M687.1,302.9c-0.6,0-1.4,0.4-1.4,1.6v0.6c0,0.1,0,0.2,0.2,0.2h2.4
		c0.1,0,0.2,0,0.2-0.2v-0.6C688.4,303.3,687.7,302.9,687.1,302.9z"/>
	<path class="st3" d="M692,309c0-0.2,0-0.3,0.2-0.3h0.9c0.2,0,0.3,0.1,0.3,0.2c0.2,0.5,0.5,0.9,1.2,0.9c0.6,0,1.2-0.4,1.2-1.1
		c0-1.8-3.6-2.3-3.7-4.8c0-1.4,1.1-2.4,2.5-2.4c1.2,0,2.3,0.8,2.4,2.2c0,0.2,0,0.3-0.2,0.3H696c-0.2,0-0.3-0.1-0.3-0.2
		c-0.1-0.4-0.4-0.9-1-0.9c-0.6,0-1,0.5-1,1c0,1.5,3.8,2.1,3.7,4.9c0,1.6-1.3,2.5-2.7,2.5C693.3,311.2,692.3,310.3,692,309z"/>
</g>
</svg>
