<?xml version="1.0" encoding="utf-8"?>
<!-- Generator: Adobe Illustrator 22.0.1, SVG Export Plug-In . SVG Version: 6.00 Build 0)  -->
<svg version="1.0" id="Layer_1" xmlns="http://www.w3.org/2000/svg" xmlns:xlink="http://www.w3.org/1999/xlink" x="0px" y="0px"
	 viewBox="0 0 792 612" style="enable-background:new 0 0 792 612;" xml:space="preserve">
<style type="text/css">
	.st0{fill:#FFFFFF;stroke:#000000;stroke-miterlimit:10;}
	.st1{fill:none;stroke:#000000;stroke-miterlimit:10;}
	.st2{fill:#FFFFFF;}
</style>
<polyline class="st1" points="569.3,276 556.2,235.4 507.6,194.5 459.6,182.6 "/>
<polyline class="st1" points="459.6,182.6 483.8,214.3 569.3,276 "/>
<polygon class="st1" points="389,294.6 459.6,395.4 548.5,357.8 569.3,276 483.8,214.3 "/>
<polygon class="st1" points="351.2,185.5 459.6,182.6 483.8,214.3 389,294.6 331.4,263.4 "/>
<polyline class="st1" points="315,300.9 331.4,263.4 351.2,185.5 315,300.9 "/>
<polyline class="st1" points="336.6,307.8 369.2,347.9 459.6,395.4 "/>
<polyline class="st1" points="389,294.6 331.4,263.4 315,300.9 331.4,322.6 336.6,307.8 389,294.6 "/>
<polyline class="st1" points="393,392.9 369.2,347.9 331.4,322.6 "/>
<polyline class="st1" points="331.4,322.6 365.2,371.7 393,392.9 "/>
<line class="st1" x1="459.6" y1="395.4" x2="393" y2="392.9"/>
<line class="st1" x1="336.6" y1="307.8" x2="331.4" y2="263.4"/>
</svg>
