<?xml version="1.0" encoding="utf-8"?>
<!-- Generator: Adobe Illustrator 22.0.1, SVG Export Plug-In . SVG Version: 6.00 Build 0)  -->
<svg version="1.1" id="Layer_1" xmlns="http://www.w3.org/2000/svg" xmlns:xlink="http://www.w3.org/1999/xlink" x="0px" y="0px"
	 width="792px" height="612px" viewBox="0 0 792 612" enable-background="new 0 0 792 612" xml:space="preserve">
<g>
	<path fill="#FFFFFF" d="M472.4,309.9c0-0.2,0.1-0.3,0.3-0.3l0.5-0.1c0.2-0.1,0.3,0,0.4,0.1l4.3,8c0.1,0.2,0,0.3-0.1,0.3l-0.6,0.2
		c-0.2,0-0.2,0-0.3-0.2l-0.8-1.5c-0.1-0.1-0.1-0.1-0.3-0.1l-1.5,0.4c-0.2,0-0.2,0.1-0.2,0.2l0.1,1.7c0,0.2,0,0.3-0.2,0.3l-0.6,0.2
		c-0.1,0-0.2,0-0.2-0.2L472.4,309.9z M474,315.8l1.4-0.4c0.1,0,0.1-0.1,0.1-0.2l-1.7-3.4c0-0.1-0.2,0-0.1,0l0.3,3.8
		C473.9,315.8,473.9,315.8,474,315.8z"/>
	<path fill="#FFFFFF" d="M479.5,310.9l0.2,0.6c0.1,0.2,0,0.3-0.2,0.3c-0.6,0.2-1,0.6-0.8,1.4l1.1,3.9c0.1,0.2,0,0.3-0.2,0.3
		l-0.5,0.1c-0.2,0.1-0.3,0-0.3-0.2l-1.6-5.7c-0.1-0.2,0-0.3,0.2-0.3l0.4-0.1c0.2-0.1,0.2,0,0.3,0.2l0.1,0.3c0.2-0.5,0.6-0.8,1-0.9
		C479.4,310.7,479.5,310.8,479.5,310.9z"/>
	<path fill="#FFFFFF" d="M481.9,315l-1-3.5c0-0.1-0.1-0.1-0.2-0.1l-0.2,0.1c-0.2,0.1-0.3,0-0.3-0.2l-0.1-0.4c-0.1-0.2,0-0.3,0.2-0.3
		l0.3-0.1c0.1,0,0.1-0.1,0.1-0.2l-0.2-0.9c0-0.2,0-0.3,0.2-0.3l0.5-0.1c0.2-0.1,0.3,0,0.3,0.2l0.2,0.9c0,0.1,0.1,0.1,0.2,0.1
		l0.6-0.2c0.2-0.1,0.3,0,0.3,0.2l0.1,0.4c0.1,0.2,0,0.3-0.2,0.3l-0.6,0.2c-0.1,0-0.1,0.1-0.1,0.2l1,3.5c0.2,0.5,0.5,0.7,1,0.6
		c0.2-0.1,0.3,0,0.3,0.2l0.1,0.4c0.1,0.2,0,0.3-0.2,0.3C482.9,316.5,482.2,316.2,481.9,315z"/>
	<path fill="#FFFFFF" d="M492.3,307.3l0.3,6.1c0,0.2-0.1,0.3-0.2,0.3l-0.4,0.1c-0.2,0.1-0.3,0-0.4-0.2l-1.9-3.5c0-0.1-0.1-0.1-0.1,0
		l0.2,4c0,0.2-0.1,0.3-0.2,0.3l-0.4,0.1c-0.2,0.1-0.3,0-0.4-0.2l-3-5.4c-0.1-0.1,0-0.2,0.1-0.3l0.6-0.2c0.2,0,0.3,0,0.3,0.2l1.9,3.6
		c0,0.1,0.1,0.1,0.1,0l-0.2-4c0-0.2,0.1-0.3,0.2-0.3l0.3-0.1c0.2-0.1,0.3,0,0.4,0.2l1.9,3.6c0.1,0.1,0.2,0,0.1,0l-0.3-4
		c0-0.2,0.1-0.3,0.2-0.3l0.6-0.2C492.2,307.1,492.3,307.2,492.3,307.3z"/>
	<path fill="#FFFFFF" d="M494.1,311.1l-0.6-2.1c-0.4-1.6,0.4-2.4,1.3-2.7c0.9-0.3,2.1,0,2.5,1.6l0.6,2.1c0.4,1.6-0.4,2.5-1.3,2.7
		C495.8,313,494.6,312.7,494.1,311.1z M495.1,307.2c-0.4,0.1-0.8,0.5-0.6,1.3l0.7,2.4c0.2,0.8,0.8,0.9,1.2,0.8
		c0.4-0.1,0.8-0.5,0.6-1.3l-0.7-2.4C496.1,307.2,495.5,307.1,495.1,307.2z"/>
	<path fill="#FFFFFF" d="M500.4,305l0.2,0.6c0.1,0.2,0,0.3-0.2,0.3c-0.6,0.2-1,0.6-0.8,1.4l1.1,3.9c0.1,0.2,0,0.3-0.2,0.3l-0.5,0.1
		c-0.2,0.1-0.3,0-0.3-0.2l-1.6-5.7c-0.1-0.2,0-0.3,0.2-0.3l0.4-0.1c0.2-0.1,0.2,0,0.3,0.2l0.1,0.3c0.2-0.5,0.6-0.8,1-0.9
		C500.3,304.8,500.4,304.8,500.4,305z"/>
	<path fill="#FFFFFF" d="M506.6,309.7l-0.6,0.2c-0.1,0-0.3,0-0.3-0.1l-1.8-1.9c-0.1-0.1-0.2,0-0.2,0.1l-0.1,0.6c0,0.2,0,0.3,0,0.4
		l0.4,1.2c0.1,0.2,0,0.3-0.2,0.3l-0.5,0.1c-0.2,0.1-0.3,0-0.3-0.2l-1.4-5l-1-3.6c-0.1-0.2,0-0.3,0.2-0.3l0.5-0.1
		c0.2-0.1,0.3,0,0.3,0.2l1.5,5.2c0,0.1,0.1,0.1,0.2,0l0.7-3c0-0.1,0.1-0.2,0.3-0.2l0.6-0.2c0.1,0,0.2,0.1,0.2,0.2l-0.7,2.9
		c0,0.1,0,0.2,0.1,0.3l2.4,2.6C506.8,309.6,506.8,309.7,506.6,309.7z"/>
</g>
</svg>
