<?xml version="1.0" encoding="utf-8"?>
<!-- Generator: Adobe Illustrator 22.0.1, SVG Export Plug-In . SVG Version: 6.00 Build 0)  -->
<svg version="1.1" id="Layer_1" xmlns="http://www.w3.org/2000/svg" xmlns:xlink="http://www.w3.org/1999/xlink" x="0px" y="0px"
	 width="792px" height="612px" viewBox="0 0 792 612" enable-background="new 0 0 792 612" xml:space="preserve">
<g>
	<path fill="#FFFFFF" d="M380.6,246.2l4.9,6.4l-0.8,0.6l-4.9-6.4L380.6,246.2z"/>
	<path fill="#FFFFFF" d="M384.5,248.1c-0.4-0.5-0.7-0.9-1-1.2l0.7-0.6l0.6,0.7l0,0c-0.1-0.6,0.1-1.4,0.9-2c0.6-0.5,1.9-0.9,3.1,0.7
		l2.1,2.8l-0.8,0.6l-2-2.7c-0.6-0.7-1.3-1.2-2.1-0.6c-0.6,0.4-0.7,1.1-0.5,1.7c0,0.1,0.1,0.3,0.2,0.4l2.1,2.8l-0.8,0.6L384.5,248.1z
		"/>
	<path fill="#FFFFFF" d="M392.4,247.4l-3-4l-0.6,0.5l-0.5-0.6l0.6-0.5l-0.2-0.2c-0.5-0.6-0.8-1.4-0.7-2c0.1-0.5,0.4-1,0.8-1.3
		c0.3-0.2,0.6-0.4,0.8-0.4l0.4,0.7c-0.2,0-0.4,0.1-0.6,0.3c-0.7,0.5-0.4,1.3,0.1,2l0.2,0.2l1.1-0.8l0.5,0.6l-1.1,0.8l3,4
		L392.4,247.4z"/>
	<path fill="#FFFFFF" d="M397.4,239.9c1.3,1.7,0.7,3.4-0.4,4.2c-1.3,1-2.9,0.8-4-0.7c-1.2-1.5-0.9-3.2,0.4-4.2
		C394.7,238.2,396.3,238.5,397.4,239.9z M393.8,242.7c0.8,1,1.9,1.3,2.8,0.7c0.8-0.6,0.8-1.8,0-2.9c-0.6-0.8-1.7-1.5-2.7-0.7
		C392.9,240.6,393.1,241.8,393.8,242.7z"/>
	<path fill="#FFFFFF" d="M397.8,238.3c-0.4-0.5-0.8-1-1.1-1.4l0.7-0.6l0.7,0.9l0,0c-0.3-0.8-0.1-1.6,0.5-2c0.1-0.1,0.2-0.1,0.3-0.2
		l0.6,0.8c-0.1,0-0.2,0.1-0.3,0.2c-0.6,0.4-0.7,1.2-0.3,1.9c0.1,0.1,0.2,0.3,0.3,0.4l1.9,2.5l-0.8,0.6L397.8,238.3z"/>
	<path fill="#FFFFFF" d="M400.9,235.7c-0.4-0.5-0.7-0.9-1-1.2l0.7-0.6l0.6,0.7l0,0c-0.1-0.6,0-1.4,0.8-2c0.6-0.5,1.4-0.5,2-0.1l0,0
		c-0.1-0.4,0-0.7,0.1-1c0.1-0.4,0.3-0.8,0.8-1.1c0.6-0.5,1.8-0.8,3,0.9l2.1,2.7l-0.8,0.6l-2-2.6c-0.7-0.9-1.4-1.2-2.1-0.7
		c-0.5,0.4-0.6,1-0.4,1.5c0,0.1,0.1,0.3,0.3,0.5l2.2,2.9l-0.8,0.6l-2.1-2.8c-0.6-0.7-1.3-1-1.9-0.5c-0.5,0.4-0.6,1.1-0.4,1.6
		c0,0.2,0.1,0.3,0.2,0.5l2.1,2.8l-0.8,0.6L400.9,235.7z"/>
	<path fill="#FFFFFF" d="M414,231l-0.5-0.5l0,0c0,0.6-0.2,1.3-0.9,1.8c-0.9,0.7-1.9,0.4-2.4-0.3c-0.8-1.1-0.3-2.5,1.5-3.8l-0.1-0.1
		c-0.3-0.4-0.9-1-1.9-0.3c-0.4,0.3-0.8,0.8-0.9,1.3l-0.6-0.4c0.2-0.5,0.6-1.1,1.2-1.6c1.4-1.1,2.5-0.4,3.2,0.6l1.3,1.7
		c0.3,0.4,0.6,0.8,0.9,1.1L414,231z M412,228.8c-0.9,0.7-1.8,1.6-1.2,2.5c0.4,0.5,1,0.5,1.4,0.2c0.6-0.5,0.7-1.1,0.5-1.6
		c0-0.1-0.1-0.2-0.2-0.3L412,228.8z"/>
	<path fill="#FFFFFF" d="M412.5,222.8l1,1.3l1.2-0.9l0.5,0.6l-1.2,0.9l1.9,2.5c0.4,0.6,0.8,0.8,1.3,0.4c0.2-0.2,0.4-0.3,0.4-0.4
		l0.5,0.6c-0.1,0.2-0.3,0.4-0.7,0.7c-0.4,0.3-0.8,0.4-1.2,0.3c-0.4-0.1-0.8-0.4-1.2-1l-1.9-2.5l-0.7,0.5l-0.5-0.6l0.7-0.5l-0.8-1.1
		L412.5,222.8z"/>
	<path fill="#FFFFFF" d="M415.6,220.5c0.2,0.3,0.2,0.7-0.1,0.9c-0.3,0.2-0.7,0.2-0.9-0.1c-0.2-0.3-0.2-0.7,0.1-0.9
		C415,220.1,415.3,220.2,415.6,220.5z M419.1,227.1l-3.5-4.6l0.8-0.6l3.5,4.6L419.1,227.1z"/>
	<path fill="#FFFFFF" d="M423.8,219.9c1.3,1.7,0.7,3.4-0.4,4.2c-1.3,1-2.9,0.8-4-0.7c-1.2-1.5-0.9-3.2,0.4-4.2
		C421.1,218.2,422.7,218.5,423.8,219.9z M420.1,222.7c0.8,1,1.9,1.3,2.8,0.7c0.8-0.6,0.8-1.8,0-2.9c-0.6-0.8-1.7-1.5-2.7-0.7
		C419.2,220.6,419.5,221.8,420.1,222.7z"/>
	<path fill="#FFFFFF" d="M424.1,218.1c-0.4-0.5-0.7-0.9-1-1.2l0.7-0.6l0.6,0.7l0,0c-0.1-0.6,0.1-1.4,0.9-2c0.6-0.5,1.9-0.9,3.1,0.7
		l2.1,2.8l-0.8,0.6l-2-2.7c-0.6-0.7-1.3-1.2-2.1-0.6c-0.6,0.4-0.7,1.1-0.5,1.7c0,0.1,0.1,0.3,0.2,0.4l2.1,2.8l-0.8,0.6L424.1,218.1z
		"/>
</g>
</svg>
