<?xml version="1.0" encoding="utf-8"?>
<!-- Generator: Adobe Illustrator 22.0.1, SVG Export Plug-In . SVG Version: 6.00 Build 0)  -->
<svg version="1.1" id="Layer_1" xmlns="http://www.w3.org/2000/svg" xmlns:xlink="http://www.w3.org/1999/xlink" x="0px" y="0px"
	 viewBox="0 0 872.9 612" style="enable-background:new 0 0 872.9 612;" xml:space="preserve">
<style type="text/css">
	.st0{fill:#FFFFFF;stroke:#000000;stroke-miterlimit:10;}
	.st1{fill:none;stroke:#000000;stroke-miterlimit:10;}
	.st2{fill:#FFFFFF;}
	.st3{fill:#010101;}
</style>
<g>
	<path class="st3" d="M32,327.1c-3.6,0-6.3-2.7-6.5-6.2c0-0.3,0-0.6,0.5-0.6h1.9c0.4,0,0.6,0.1,0.6,0.5c0.2,1.8,1.5,3.5,3.6,3.5
		c1.9,0,3.2-1.4,3.3-3.4c0.2-5.2-9.4-8.4-9.4-14.8c0-3.2,2.4-5.7,5.8-5.7c3.5,0,5.6,2.6,5.8,5.6c0,0.3,0,0.6-0.5,0.6h-1.9
		c-0.4,0-0.6-0.1-0.6-0.5c-0.3-1.6-1.3-2.9-2.8-2.9c-1.6,0-2.8,1.3-2.7,2.9c0.2,4.2,9.3,8,9.3,14.7C38.5,324.7,35.3,327.1,32,327.1z
		"/>
	<path class="st3" d="M44,321.9v-10.2c0-0.3-0.1-0.5-0.5-0.5h-0.7c-0.5,0-0.7-0.2-0.7-0.7v-1c0-0.5,0.2-0.7,0.7-0.7h0.8
		c0.3,0,0.5-0.1,0.5-0.5v-2.5c0-0.5,0.2-0.7,0.7-0.7h1.3c0.5,0,0.7,0.2,0.7,0.7v2.5c0,0.3,0.1,0.5,0.5,0.5h1.8
		c0.5,0,0.7,0.2,0.7,0.7v1c0,0.5-0.2,0.7-0.7,0.7h-1.7c-0.3,0-0.5,0.1-0.5,0.5v10.2c0,1.5,0.7,2.3,2.2,2.3c0.5,0,0.7,0.2,0.7,0.7
		v1.2c0,0.5-0.2,0.7-0.7,0.7C45.7,326.8,44,325.3,44,321.9z"/>
	<path class="st3" d="M53.3,302.6c0-1.1,0.9-2,2-2c1.1,0,2,0.9,2,2c0,1.1-0.9,2-2,2C54.2,304.6,53.3,303.7,53.3,302.6z M56.8,309.5
		V326c0,0.5-0.2,0.7-0.7,0.7h-1.5c-0.5,0-0.7-0.2-0.7-0.7v-16.6c0-0.5,0.2-0.7,0.7-0.7H56C56.6,308.8,56.8,309,56.8,309.5z"/>
	<path class="st3" d="M67.6,324.9v1.2c0,0.5-0.2,0.7-0.7,0.7c-3.4,0-5-1.5-5-5.1v-20.3c0-0.5,0.2-0.7,0.7-0.7H64
		c0.5,0,0.7,0.2,0.7,0.7v20.5c0,1.6,0.8,2.3,2.1,2.3C67.4,324.2,67.6,324.4,67.6,324.9z"/>
	<path class="st3" d="M77.3,324.9v1.2c0,0.5-0.2,0.7-0.7,0.7c-3.4,0-5-1.5-5-5.1v-20.3c0-0.5,0.2-0.7,0.7-0.7h1.5
		c0.5,0,0.7,0.2,0.7,0.7v20.5c0,1.6,0.8,2.3,2.1,2.3C77,324.2,77.3,324.4,77.3,324.9z"/>
	<path class="st3" d="M92.2,314.1v12c0,0.5-0.2,0.7-0.7,0.7H90c-0.5,0-0.7-0.2-0.7-0.7v-11.8c0-2.3-1.4-3.2-2.6-3.1
		c-1.3,0-2.5,1-2.5,3.1V326c0,0.5-0.2,0.7-0.7,0.7h-1.5c-0.5,0-0.7-0.2-0.7-0.7v-16.6c0-0.5,0.2-0.7,0.7-0.7H83
		c0.5,0,0.7,0.2,0.8,0.7l0.2,1c0.7-0.9,1.7-1.8,3.1-2C89.6,308.2,92.2,310,92.2,314.1z"/>
	<path class="st3" d="M108,314.7v0.7c0,0.7,0,1.2-0.1,1.9c0,0.5-0.2,0.7-0.7,0.7h-6.8c-0.3,0-0.3,0.1-0.3,0.3v3.1c0,2.2,1.3,3,2.6,3
		c1.2,0,2-0.8,2.3-1.7c0.1-0.3,0.3-0.4,0.6-0.4h1.7c0.4,0,0.5,0.3,0.5,0.6c-0.3,2.8-2.6,4.2-5,4.2c-2.7,0-5.5-1.7-5.5-6.6V315
		c0-4.9,2.8-6.6,5.5-6.6C105.2,308.4,108,310,108,314.7z M102.6,311.1c-1.1,0-2.6,0.8-2.6,3.1v1.2c0,0.3,0.1,0.3,0.3,0.3h4.6
		c0.3,0,0.3-0.1,0.3-0.3v-1.2C105.3,311.8,103.8,311.1,102.6,311.1z"/>
	<path class="st3" d="M112.3,322.9c-0.1-0.3,0-0.6,0.5-0.6h1.7c0.3,0,0.5,0.1,0.6,0.4c0.3,1,1,1.8,2.3,1.8c1.2,0,2.3-0.7,2.3-2.2
		c0-3.5-7-4.4-7.1-9.2c-0.1-2.7,2.1-4.7,4.8-4.7c2.4,0,4.5,1.6,4.7,4.2c0,0.3,0,0.6-0.5,0.6H120c-0.3,0-0.5-0.1-0.6-0.4
		c-0.2-0.8-0.8-1.8-2-1.8c-1.2,0-2,0.9-2,1.8c0,2.9,7.3,4.1,7.2,9.4c0,3.1-2.5,4.8-5.3,4.8C114.7,327.1,112.7,325.4,112.3,322.9z"/>
	<path class="st3" d="M126.4,322.9c-0.1-0.3,0-0.6,0.5-0.6h1.7c0.3,0,0.5,0.1,0.6,0.4c0.3,1,1,1.8,2.3,1.8c1.2,0,2.3-0.7,2.3-2.2
		c0-3.5-7-4.4-7.1-9.2c-0.1-2.7,2.1-4.7,4.8-4.7c2.4,0,4.5,1.6,4.7,4.2c0,0.3,0,0.6-0.5,0.6h-1.6c-0.3,0-0.5-0.1-0.6-0.4
		c-0.2-0.8-0.8-1.8-2-1.8c-1.2,0-2,0.9-2,1.8c0,2.9,7.3,4.1,7.2,9.4c0,3.1-2.5,4.8-5.3,4.8C128.8,327.1,126.9,325.4,126.4,322.9z"/>
	<path class="st3" d="M149.8,302.6c0-1.1,0.9-2,2-2c1.1,0,2,0.9,2,2c0,1.1-0.9,2-2,2C150.7,304.6,149.8,303.7,149.8,302.6z
		 M153.3,309.5V326c0,0.5-0.2,0.7-0.7,0.7H151c-0.5,0-0.7-0.2-0.7-0.7v-16.6c0-0.5,0.2-0.7,0.7-0.7h1.5
		C153.1,308.8,153.3,309,153.3,309.5z"/>
	<path class="st3" d="M169.4,314.1v12c0,0.5-0.2,0.7-0.7,0.7h-1.5c-0.5,0-0.7-0.2-0.7-0.7v-11.8c0-2.3-1.4-3.2-2.6-3.1
		c-1.3,0-2.5,1-2.5,3.1V326c0,0.5-0.2,0.7-0.7,0.7H159c-0.5,0-0.7-0.2-0.7-0.7v-16.6c0-0.5,0.2-0.7,0.7-0.7h1.1
		c0.5,0,0.7,0.2,0.8,0.7l0.2,1c0.7-0.9,1.7-1.8,3.1-2C166.7,308.2,169.4,310,169.4,314.1z"/>
	<path class="st3" d="M183.6,326v-24.7c0-0.5,0.2-0.7,0.7-0.7h1.3c0.5,0,0.7,0.3,0.8,0.7l5.4,19.1c0.1,0.2,0.3,0.2,0.4,0l5.4-19.1
		c0.1-0.4,0.3-0.7,0.8-0.7h1.3c0.5,0,0.7,0.2,0.7,0.7V326c0,0.5-0.2,0.7-0.7,0.7H198c-0.5,0-0.7-0.2-0.7-0.7v-13.9
		c0-0.3-0.3-0.3-0.4,0l-3.8,14c-0.1,0.6-0.3,0.7-0.9,0.7h-0.2c-0.6,0-0.8-0.1-0.9-0.7l-3.8-14c-0.1-0.3-0.4-0.2-0.4,0V326
		c0,0.5-0.2,0.7-0.7,0.7h-1.7C183.8,326.8,183.6,326.6,183.6,326z"/>
	<path class="st3" d="M205.4,320.8v-6.1c0-4.5,2.9-6.2,5.5-6.2c2.6,0,5.5,1.7,5.5,6.2v6.1c0,4.6-2.9,6.3-5.5,6.3
		C208.3,327.1,205.4,325.4,205.4,320.8z M210.9,311.2c-1.2,0-2.5,0.8-2.5,3.1v7c0,2.3,1.4,3.1,2.5,3.1c1.2,0,2.6-0.8,2.6-3.1v-7
		C213.5,311.9,212.1,311.2,210.9,311.2z"/>
	<path class="st3" d="M222.1,321.9v-10.2c0-0.3-0.1-0.5-0.5-0.5h-0.7c-0.5,0-0.7-0.2-0.7-0.7v-1c0-0.5,0.2-0.7,0.7-0.7h0.8
		c0.3,0,0.5-0.1,0.5-0.5v-2.5c0-0.5,0.2-0.7,0.7-0.7h1.3c0.5,0,0.7,0.2,0.7,0.7v2.5c0,0.3,0.1,0.5,0.5,0.5h1.8
		c0.5,0,0.7,0.2,0.7,0.7v1c0,0.5-0.2,0.7-0.7,0.7h-1.7c-0.3,0-0.5,0.1-0.5,0.5v10.2c0,1.5,0.7,2.3,2.2,2.3c0.5,0,0.7,0.2,0.7,0.7
		v1.2c0,0.5-0.2,0.7-0.7,0.7C223.8,326.8,222.1,325.3,222.1,321.9z"/>
	<path class="st3" d="M231.3,302.6c0-1.1,0.9-2,2-2c1.1,0,2,0.9,2,2c0,1.1-0.9,2-2,2C232.2,304.6,231.3,303.7,231.3,302.6z
		 M234.8,309.5V326c0,0.5-0.2,0.7-0.7,0.7h-1.5c-0.5,0-0.7-0.2-0.7-0.7v-16.6c0-0.5,0.2-0.7,0.7-0.7h1.5
		C234.6,308.8,234.8,309,234.8,309.5z"/>
	<path class="st3" d="M239.7,320.8v-6.1c0-4.5,2.9-6.2,5.5-6.2c2.6,0,5.5,1.7,5.5,6.2v6.1c0,4.6-2.9,6.3-5.5,6.3
		C242.6,327.1,239.7,325.4,239.7,320.8z M245.2,311.2c-1.2,0-2.5,0.8-2.5,3.1v7c0,2.3,1.4,3.1,2.5,3.1c1.2,0,2.6-0.8,2.6-3.1v-7
		C247.8,311.9,246.4,311.2,245.2,311.2z"/>
	<path class="st3" d="M266.7,314.1v12c0,0.5-0.2,0.7-0.7,0.7h-1.5c-0.5,0-0.7-0.2-0.7-0.7v-11.8c0-2.3-1.4-3.2-2.6-3.1
		c-1.3,0-2.5,1-2.5,3.1V326c0,0.5-0.2,0.7-0.7,0.7h-1.5c-0.5,0-0.7-0.2-0.7-0.7v-16.6c0-0.5,0.2-0.7,0.7-0.7h1.1
		c0.5,0,0.7,0.2,0.8,0.7l0.2,1c0.7-0.9,1.7-1.8,3.1-2C264,308.2,266.7,310,266.7,314.1z"/>
</g>
<g>
	<path class="st3" d="M693.2,319.7v-12.2c0-4.6,2.3-7.3,6.2-7.3c3.6,0,5.7,2.4,5.9,5.7c0,0.3,0,0.6-0.5,0.6h-1.9
		c-0.4,0-0.6-0.1-0.6-0.5c-0.3-1.6-1.3-2.8-2.9-2.8c-1.8,0-3.1,1.5-3.1,4.3v12.2c0,2.8,1.2,4.3,3.1,4.3c1.6,0,2.6-1.2,2.9-2.8
		c0-0.4,0.2-0.5,0.6-0.5h1.9c0.4,0,0.5,0.3,0.5,0.6c-0.2,3.3-2.3,5.7-5.9,5.7C695.5,327,693.2,324.3,693.2,319.7z"/>
	<path class="st3" d="M716,324.8v1.1c0,0.5-0.2,0.7-0.7,0.7c-3.4,0-5-1.5-5-5.1v-20.3c0-0.5,0.2-0.7,0.7-0.7h1.5
		c0.5,0,0.7,0.2,0.7,0.7v20.4c0,1.6,0.8,2.3,2,2.3C715.8,324.1,716,324.3,716,324.8z"/>
	<path class="st3" d="M719.7,320.7v-6.1c0-4.5,2.9-6.2,5.5-6.2c2.6,0,5.5,1.7,5.5,6.2v6.1c0,4.6-2.9,6.3-5.5,6.3
		C722.6,327,719.7,325.3,719.7,320.7z M725.2,311.1c-1.1,0-2.5,0.8-2.5,3.1v7c0,2.3,1.4,3.1,2.5,3.1c1.2,0,2.6-0.8,2.6-3.1v-7
		C727.8,311.9,726.4,311.1,725.2,311.1z"/>
	<path class="st3" d="M746.6,309.5V326c0,0.5-0.2,0.7-0.7,0.7h-1.1c-0.5,0-0.7-0.2-0.8-0.7l-0.2-1c-0.7,0.9-1.7,1.8-3.1,1.9
		c-2.5,0.3-5.1-1.5-5.1-5.5v-12c0-0.5,0.2-0.7,0.7-0.7h1.5c0.5,0,0.7,0.2,0.7,0.7v11.7c0,2.3,1.4,3.2,2.6,3.1c1.3,0,2.5-1,2.5-3.1
		v-11.7c0-0.5,0.2-0.7,0.7-0.7h1.5C746.4,308.7,746.6,308.9,746.6,309.5z"/>
	<path class="st3" d="M762.5,301.4V326c0,0.5-0.2,0.7-0.7,0.7h-1.1c-0.5,0-0.7-0.2-0.8-0.8l-0.2-1c-0.7,0.9-1.7,1.8-3.1,2
		c-2.5,0.3-5.1-1.5-5.1-5.5v-3.7V314c0-4,2.6-5.8,5.1-5.5c1.3,0.2,2.3,0.9,3,1.7v-8.9c0-0.5,0.2-0.7,0.7-0.7h1.5
		C762.3,300.6,762.5,300.8,762.5,301.4z M759.5,321.2v-7c0-2-1.2-3.1-2.5-3.1c-1.2-0.1-2.6,0.8-2.6,3.1v3.5v3.5
		c0,2.3,1.4,3.2,2.6,3.1C758.3,324.3,759.5,323.2,759.5,321.2z"/>
	<path class="st3" d="M776.5,319.7v-12.2c0-4.6,2.3-7.3,6.2-7.3c3.6,0,5.7,2.4,5.9,5.7c0,0.3,0,0.6-0.5,0.6h-1.9
		c-0.4,0-0.6-0.1-0.6-0.5c-0.3-1.6-1.3-2.8-2.9-2.8c-1.8,0-3.1,1.5-3.1,4.3v12.2c0,2.8,1.2,4.3,3.1,4.3c1.6,0,2.6-1.2,2.9-2.8
		c0-0.4,0.2-0.5,0.6-0.5h1.9c0.4,0,0.5,0.3,0.5,0.6c-0.2,3.3-2.3,5.7-5.9,5.7C778.8,327,776.5,324.3,776.5,319.7z"/>
	<path class="st3" d="M793.1,302.5c0-1.1,0.9-2,2-2c1.1,0,2,0.9,2,2c0,1.1-0.9,2-2,2C794,304.6,793.1,303.7,793.1,302.5z
		 M796.6,309.5V326c0,0.5-0.2,0.7-0.7,0.7h-1.5c-0.5,0-0.7-0.2-0.7-0.7v-16.5c0-0.5,0.2-0.7,0.7-0.7h1.5
		C796.4,308.7,796.6,308.9,796.6,309.5z"/>
	<path class="st3" d="M802.4,321.8v-10.1c0-0.3-0.1-0.5-0.5-0.5h-0.7c-0.5,0-0.7-0.2-0.7-0.7v-1c0-0.5,0.2-0.7,0.7-0.7h0.8
		c0.3,0,0.5-0.1,0.5-0.5v-2.5c0-0.5,0.2-0.7,0.7-0.7h1.3c0.5,0,0.7,0.2,0.7,0.7v2.5c0,0.3,0.1,0.5,0.5,0.5h1.8
		c0.5,0,0.7,0.2,0.7,0.7v1c0,0.5-0.2,0.7-0.7,0.7h-1.7c-0.3,0-0.5,0.1-0.5,0.5v10.1c0,1.5,0.7,2.3,2.2,2.3c0.5,0,0.7,0.2,0.7,0.7
		v1.1c0,0.5-0.2,0.7-0.7,0.7C804.1,326.7,802.4,325.3,802.4,321.8z"/>
	<path class="st3" d="M811.6,302.5c0-1.1,0.9-2,2-2c1.1,0,2,0.9,2,2c0,1.1-0.9,2-2,2C812.5,304.6,811.6,303.7,811.6,302.5z
		 M815.1,309.5V326c0,0.5-0.2,0.7-0.7,0.7h-1.5c-0.5,0-0.7-0.2-0.7-0.7v-16.5c0-0.5,0.2-0.7,0.7-0.7h1.5
		C814.9,308.7,815.1,308.9,815.1,309.5z"/>
	<path class="st3" d="M830.8,314.6v0.7c0,0.7,0,1.2-0.1,1.9c0,0.5-0.2,0.7-0.7,0.7h-6.8c-0.3,0-0.3,0.1-0.3,0.3v3.1
		c0,2.2,1.3,3,2.6,3c1.2,0,1.9-0.8,2.3-1.7c0.1-0.3,0.3-0.4,0.6-0.4h1.7c0.4,0,0.5,0.3,0.5,0.6c-0.3,2.8-2.6,4.2-5,4.2
		c-2.7,0-5.5-1.7-5.5-6.5v-5.5c0-4.9,2.8-6.5,5.5-6.5C828,308.4,830.8,309.9,830.8,314.6z M825.5,311c-1.1,0-2.6,0.8-2.6,3.1v1.2
		c0,0.3,0.1,0.3,0.3,0.3h4.6c0.3,0,0.3-0.1,0.3-0.3v-1.2C828.1,311.8,826.7,311,825.5,311z"/>
	<path class="st3" d="M835.1,322.8c-0.1-0.3,0-0.6,0.5-0.6h1.7c0.3,0,0.5,0.1,0.6,0.4c0.3,1,1,1.8,2.3,1.8c1.2,0,2.3-0.7,2.3-2.2
		c0-3.5-6.9-4.3-7.1-9.2c-0.1-2.7,2.1-4.7,4.8-4.7c2.4,0,4.5,1.6,4.7,4.2c0,0.3,0,0.6-0.5,0.6h-1.6c-0.3,0-0.5-0.1-0.6-0.4
		c-0.2-0.8-0.8-1.8-2-1.8c-1.2,0-1.9,0.9-2,1.8c0,2.9,7.3,4.1,7.2,9.4c0,3.1-2.5,4.8-5.2,4.8C837.5,327,835.5,325.4,835.1,322.8z"/>
</g>
</svg>
